<svg height="462pt" viewBox="-12 0 462 462.3589" width="462pt" xmlns="http://www.w3.org/2000/svg"><path d="m97.484375 333.285156 24.207031 41.597656c.0625.105469.160156.183594.222656.289063s0 .121094.074219.175781l13.597657 20c1.488281 2.199219 3.96875 3.511719 6.625 3.511719h.800781l93.207031-9.0625c.703125-.070313 1.394531-.234375 2.054688-.480469l24.800781-9.382812-21.191407 65.597656c-.964843 3.039062-.035156 6.363281 2.371094 8.453125 2.40625 2.09375 5.824219 2.5625 8.699219 1.1875l46.074219-22.398437c1.515625-.738282 2.761718-1.9375 3.558594-3.425782l43.199218-80.703125 72-27.199219c16.535156-6.246093 24.875-24.710937 18.628906-41.246093-6.246093-16.53125-24.710937-24.871094-41.242187-18.628907l-71.519531 27.042969-8.800782-4.546875c45.707032-58.636718 49.613282-139.679687 9.757813-202.445312-39.851563-62.765625-114.859375-93.699219-187.371094-77.273438-72.511719 16.421875-126.871093 76.65625-135.789062 150.46875s29.527343 145.261719 96.042969 178.484375zm53.597656 20.550782-18.96875 7.199218-16.304687-28.039062 8.992187-3.398438zm138.609375 65.671874-26.863281 13.0625 19.351563-59.878906 40.855468-15.449218zm111.136719-142.984374c8.226563-2.992188 17.332031 1.1875 20.429687 9.378906 3.097657 8.1875-.960937 17.347656-9.113281 20.550781l-178.597656 67.527344-87.425781 8.503906-5.207032-7.6875 25.921876-9.808594zm-140.800781 36.128906c-.253906-.375-.539063-.726563-.847656-1.054688l-68.28125-53.65625 20.800781-9.113281 91.824219 47.382813zm-93.535156-24.679688v15.496094c-63.519532-5.039062-113.722657-55.917969-117.914063-119.496094h29.914063v-16h-29.914063c4.179687-63.585937 54.390625-114.46875 117.914063-119.496094v23.496094h16v-23.679687c64.957031 3.285156 117.125 54.769531 121.269531 119.679687h-33.269531v16h33.292968c-1.714844 28.808594-13.238281 56.164063-32.65625 77.519532l-55.453125-28.632813c-2.144531-1.09375-4.664062-1.175781-6.875-.214844l-36.558593 16c-2.570313 1.128907-4.355469 3.523438-4.710938 6.308594s.773438 5.550781 2.976562 7.289063l45.125 35.464843c-10.734374 3.445313-21.878906 5.4375-33.140624 5.921875v-15.65625zm9.679687-272c61.691406-.085937 117.921875 35.351563 144.460937 91.046875 26.539063 55.691407 18.648438 121.6875-20.277343 169.550781l-14.535157-7.503906c22.226563-25.914062 34.417969-58.949218 34.351563-93.09375-.09375-79.492187-64.511719-143.90625-144-144h-1.777344c-79.527343.027344-143.980469 64.519532-143.953125 144.046875.027344 79.53125 64.519532 143.980469 144.050782 143.953125h1.679687c18.558594-.027344 36.929687-3.683594 54.085937-10.761718l12.625 9.960937-37.105468 14.023437c-17.234375 3.28125-34.894532 3.667969-52.253906 1.152344l-21.496094-19.847656c-2.234375-2.042969-5.421875-2.660156-8.257813-1.601562l-17.886719 6.769531c-66.960937-32.664063-102.5-107.234375-85.699218-179.816407 16.796875-72.582031 81.484375-123.957031 155.988281-123.878906zm0 0"/><path d="m171.820312 182.707031 62.351563 40 8.636719-13.472656-58.71875-37.695313-1.597656-75.734374-16 .335937 1.644531 80c.058593 2.664063 1.4375 5.128906 3.683593 6.566406zm0 0"/><path d="m11.851562 391.90625 28.183594-15.15625 7.578125 14.09375-28.1875 15.152344zm0 0"/><path d="m54.125 369.152344 35.230469-18.945313 7.578125 14.089844-35.230469 18.949219zm0 0"/><path d="m42.171875 448.269531 28.183594-15.160156 7.578125 14.09375-28.183594 15.15625zm0 0"/><path d="m84.453125 425.519531 35.226563-18.941406 7.578124 14.089844-35.230468 18.945312zm0 0"/><path d="m27.011719 420.085938 49.3125-26.523438 7.578125 14.09375-49.3125 26.519531zm0 0"/><path d="m90.417969 385.980469 14.101562-7.582031 7.578125 14.09375-14.101562 7.582031zm0 0"/></svg>