<?xml version="1.0" encoding="iso-8859-1"?>
<!-- Generator: Adobe Illustrator 19.0.0, SVG Export Plug-In . SVG Version: 6.00 Build 0)  -->
<svg version="1.1" id="Capa_1" xmlns="http://www.w3.org/2000/svg" xmlns:xlink="http://www.w3.org/1999/xlink" x="0px" y="0px"
	 viewBox="0 0 512 512" style="enable-background:new 0 0 512 512;" xml:space="preserve">
<g>
	<g>
		<path d="M509.731,445.292l-54.293-95.167c15.526-17.74,30.241-43.979,30.241-63.604c0-9.542-3.626-15.167-6.669-18.219
			c-3.137-3.116-7.246-4.686-11.717-5.592c1.219-9.677,2.042-19.056,2.042-28.043C469.333,105.271,364.063,0,234.667,0
			S0,105.271,0,234.667s105.271,234.667,234.667,234.667c15.046,0,30.346-1.734,45.598-4.763l1.227,0.815l27.97,41.875
			c1.771,2.656,4.647,4.375,7.815,4.688c0.354,0.031,0.708,0.052,1.063,0.052c2.814,0,5.523-1.115,7.546-3.115l21.884-21.823
			c3.251-3.25,4.064-8.219,2-12.333l-10.546-21c15.402-11.531,34.493-27.708,51.625-42.229c4.732-4,9.337-7.906,13.694-11.573
			l73.342,86.479c2,2.344,4.876,3.708,7.94,3.771c3.918,0,6.023-1.219,8.087-3.469l10.421-11.406
			C511.835,467.833,514.232,456.615,509.731,445.292z M448,234.667c0,9.392-0.936,19.26-2.438,29.637
			c-16.461,4.633-34.672,15.367-48.566,27.499l-56.5-32.118c0.426-8.249,0.837-16.505,0.837-25.017
			c0-30.298-2.583-58.969-7.137-85.333h95.867C441.534,175.492,448,204.323,448,234.667z M419.134,128h-89.182
			c-9.71-42.74-25.072-77.742-44.177-100.22C342.604,41.832,390.457,78.604,419.134,128z M260.419,269.458L320.29,320h-163.71
			c-4.581-25.535-7.247-54.159-7.247-85.333c0-31.174,2.667-59.798,7.247-85.333h156.173c4.581,25.535,7.246,54.159,7.246,85.333
			c0,4.466-0.303,8.737-0.44,13.116l-19.938-11.335c-9.858-3.781-21.091-1.396-28.574,6.052l-11.296,11.26
			c-2.105,2.104-3.251,5.01-3.126,7.99C256.751,264.74,258.126,267.531,260.419,269.458z M234.667,21.333
			c28.237,0,57.832,40.271,73.672,106.667H160.995C176.835,61.604,206.43,21.333,234.667,21.333z M183.559,27.78
			C164.453,50.258,149.091,85.26,139.382,128H50.199C78.876,78.604,126.729,41.832,183.559,27.78z M21.333,234.667
			c0-30.344,6.467-59.174,17.938-85.333h95.866c-4.553,26.365-7.137,55.035-7.137,85.333c0,30.298,2.583,58.969,7.137,85.333H39.271
			C27.801,293.841,21.333,265.01,21.333,234.667z M50.199,341.333h89.182c9.71,42.74,25.072,77.742,44.177,100.22
			C126.729,427.501,78.876,390.729,50.199,341.333z M234.805,429.646c0.333,3.188,2.064,6.052,4.711,7.833l10.027,6.667
			c-4.994,2.477-9.969,3.854-14.876,3.854c-28.237,0-57.832-40.271-73.672-106.667h184.566l1.518,1.281
			c-3.73,4.427-7.711,9.104-11.816,13.917c-14.465,17-30.596,35.938-42.102,51.229l-21.112-10.521
			c-4.065-2.073-9.025-1.25-12.297,1.99l-21.863,21.813C235.638,423.302,234.492,426.458,234.805,429.646z M488.93,460.542
			l-2.585,2.833l-72.362-85.313c-3.815-4.438-10.443-5.031-14.944-1.323c-6.648,5.49-14.152,11.844-21.988,18.49
			c-19.674,16.677-41.996,35.583-57.523,46.448c-4.357,3.031-5.815,8.792-3.439,13.521l11.15,22.208l-7.232,7.208L298.06,451.76
			c-0.792-1.167-1.793-2.177-2.96-2.958l-32.888-21.865l7.19-7.188l22.322,11.115c4.73,2.365,10.441,0.906,13.484-3.417
			c10.839-15.427,29.68-37.563,46.311-57.094c6.753-7.927,13.214-15.51,18.779-22.229c3.73-4.51,3.147-11.188-1.335-14.958
			l-85.889-72.51l3.064-3.063c1.543-1.542,4.148-2,4.378-1.917l102.729,58.542c4.23,2.365,9.441,1.677,12.839-1.719
			c23.03-22.958,52.814-32.323,57.773-29.188c3.293,5.031-6.148,34.833-29.116,57.729c-3.397,3.396-4.105,8.656-1.729,12.833
			l57.482,100.542C491.264,456.417,490.785,458.677,488.93,460.542z"/>
	</g>
</g>
<g>
</g>
<g>
</g>
<g>
</g>
<g>
</g>
<g>
</g>
<g>
</g>
<g>
</g>
<g>
</g>
<g>
</g>
<g>
</g>
<g>
</g>
<g>
</g>
<g>
</g>
<g>
</g>
<g>
</g>
</svg>
